<svg xmlns="http://www.w3.org/2000/svg" viewBox="0 0 442.07 241.38"><defs><style>.\35 8301a5e-9bd5-40d8-a4c4-3a6dc46446d0{fill:#fefefe;}</style></defs><title>Asset 9</title><g id="3b112b8e-9901-408d-80ba-1d803d3767fb" data-name="Layer 2"><g id="7182cd1f-b15d-4181-b082-123e55ed7d81" data-name="Eindwerk"><g id="4f7b410f-54d6-4fb2-a932-66b523339fd8" data-name="QuestionMultiple"><polygon class="58301a5e-9bd5-40d8-a4c4-3a6dc46446d0" points="1.32 224.45 3.92 5.7 440.75 16.93 438.16 235.68 1.32 224.45"/><path d="M4,5.82,440.62,17.05,438,235.55,1.45,224.32,4,5.82m-.25-.25-2.59,219,437.08,11.24,2.59-219L3.79,5.57Z"/><polygon class="58301a5e-9bd5-40d8-a4c4-3a6dc46446d0" points="0.13 22.6 436.76 0.13 441.94 218.78 5.31 241.25 0.13 22.6"/><path d="M436.64.26l5.18,218.4L5.43,241.11.26,22.71,436.64.26m.24-.26L0,22.48l5.19,218.9L442.07,218.9,436.88,0Z"/><rect class="58301a5e-9bd5-40d8-a4c4-3a6dc46446d0" x="2.59" y="11.3" width="436.9" height="218.78"/><path d="M439.36,11.42V230H2.71V11.42H439.36m.25-.25H2.46v219H439.61v-219Z"/><rect class="58301a5e-9bd5-40d8-a4c4-3a6dc46446d0" x="2.59" y="11.3" width="436.9" height="218.78"/><path d="M439.36,11.42V230H2.71V11.42H439.36m.25-.25H2.46v219H439.61v-219Z"/></g></g></g></svg>