<svg xmlns="http://www.w3.org/2000/svg" viewBox="0 0 13.62 13.62"><defs><style>.b1bfbe12-4442-497d-ba72-2e76a0ebf0a1{fill:#558fa2;}.\38 a62f00b-1887-4cf9-886c-b552456846c6{fill:none;stroke:#0b2c33;stroke-miterlimit:10;stroke-width:0.14px;}.cad1a441-f4dc-4f96-a59b-508434779f8e{fill:#6b6b6b;}</style></defs><title>close</title><g id="29aea597-f556-40c3-9081-09d08c935d81" data-name="Layer 2"><g id="eeca291e-a10e-47a5-bc71-ba13a35b4326" data-name="Eindwerk"><g id="c7352901-07a7-417b-98f3-5a3cb083478f" data-name="Homepage"><rect class="b1bfbe12-4442-497d-ba72-2e76a0ebf0a1" x="0.07" y="0.07" width="13.48" height="13.48" rx="3.14" ry="3.14"/><rect class="8a62f00b-1887-4cf9-886c-b552456846c6" x="0.07" y="0.07" width="13.48" height="13.48" rx="3.14" ry="3.14"/><path class="cad1a441-f4dc-4f96-a59b-508434779f8e" d="M7.29,6.81l3-3a.33.33,0,0,0,0-.48.34.34,0,0,0-.48,0l-3,3-3-3a.34.34,0,0,0-.48.48l3,3-3,3a.34.34,0,0,0,0,.48.33.33,0,0,0,.24.1.31.31,0,0,0,.24-.1l3-3,3,3a.33.33,0,0,0,.24.1.31.31,0,0,0,.24-.1.33.33,0,0,0,0-.48Z"/></g></g></g></svg>