<svg xmlns="http://www.w3.org/2000/svg" xmlns:xlink="http://www.w3.org/1999/xlink" viewBox="0 0 231.8 244.09"><defs><style>.\36 68a694e-1f38-4c92-8e1a-18d60d55ea42,.\39 6974692-8355-48fe-b4db-af4e8b030f27{fill:#d8bc8f;}.\34 bd575c9-5ec7-4540-a582-6af129e37ca3,.\34 d371a84-80d1-4349-bbdd-d1ce0feda7f2,.\36 68a694e-1f38-4c92-8e1a-18d60d55ea42,.\36 f88fb8e-7a73-45df-8959-9cd3dd323fc7,.c8d5c024-232e-47cb-82c1-c55e65286ffe,.d8f4146c-ab14-4b31-bba6-c2389703166b,.f23ef24c-daf5-4b76-92bd-5b18259ad04b{stroke:#000;}.\34 d371a84-80d1-4349-bbdd-d1ce0feda7f2,.\36 68a694e-1f38-4c92-8e1a-18d60d55ea42,.\36 f88fb8e-7a73-45df-8959-9cd3dd323fc7,.c8d5c024-232e-47cb-82c1-c55e65286ffe,.d8f4146c-ab14-4b31-bba6-c2389703166b{stroke-miterlimit:10;}.\34 bd575c9-5ec7-4540-a582-6af129e37ca3,.b59252a9-23b3-4bbf-9c40-903c82ee2d2d,.c8d5c024-232e-47cb-82c1-c55e65286ffe{fill:none;}.\32 e7336a4-29ce-4eb0-b42a-fca3efe27f78,.f23ef24c-daf5-4b76-92bd-5b18259ad04b{fill:#ba7300;}.\34 bd575c9-5ec7-4540-a582-6af129e37ca3,.f23ef24c-daf5-4b76-92bd-5b18259ad04b{stroke-linecap:round;stroke-linejoin:round;}.\36 f88fb8e-7a73-45df-8959-9cd3dd323fc7,.\36 fc6de97-6501-448f-ab93-6a669034558b{fill:url(#e148dd03-3081-4d13-98db-d0645718c906);}.\34 d371a84-80d1-4349-bbdd-d1ce0feda7f2,.a136af24-0956-4ffd-83d1-d52e854c6098{fill:#460d1e;}.d8f4146c-ab14-4b31-bba6-c2389703166b,.e10fbe9b-335c-43c9-a83f-9a1296fb693c{fill:#4f4a44;}.d772de9d-ebc9-4be2-8631-662e0324997a{fill:#1a1a1a;}.\37 7effac6-f0b7-4885-a3fd-98dcc1b53ea6{clip-path:url(#9121d9dd-be72-4865-93bd-54ab6c68e706);}.\30 d80d910-192c-4b47-8130-893a39a5e30e{opacity:0.82;}.\37 2b2c787-5498-4fe0-bdb2-eda0bcf0f8ba{fill:#f32732;}.d6b74202-8686-435b-bd5f-b7f3f49b7656{fill:#ff9400;}.\38 715bc55-52d2-46a4-8287-7eba60610f61{fill:#f352af;}.edbeb798-600c-4270-a4c3-e8f8c848abaa{fill:#f7dd42;}.cff39f53-c7ab-49d1-a144-eced4617b72b{fill:#8d45b5;}.\33 eb0dd08-a2e8-4560-a401-15de5baff80f{fill:#20c868;}.c49cc937-e668-4fdc-9270-a6273cddfee7{fill:#1675cf;}.\34 cf93bed-fcfe-48ff-a0d4-e5ed8ce90408{clip-path:url(#e5014fa6-7755-4dad-adeb-89d61c98b70d);}.cea6d003-93d0-4ddf-8fd8-1f0be5032b31{fill:#edcf9a;}.fb282ce2-7e90-42e1-b25c-6d4a081a1a18{clip-path:url(#337614f7-e014-4771-948b-2760c0135622);}.\32 373bf7f-af32-4136-9650-1ba7207829be{fill:#694100;}.\32 bd71129-4ed7-4475-b0d2-563cce1913b3{clip-path:url(#47f1f47f-8bb4-4338-b592-cca2fb0ca794);}.\34 bb4ef7e-05d0-4587-9f51-c5c38bc0bdd1{opacity:0.9;}.\37 f91bf05-1f82-4238-a27a-3ec8740badfc{fill:#f2f2f2;}.\33 3dcb33f-598f-41cd-b75f-d59979facf90{clip-path:url(#1eb79347-c662-4722-a1db-7f82471eb125);}.\36 f102584-1adf-4433-b8a9-d0e6d7b60946{fill:#aa0004;}.\35 b3f6d7a-6db1-4519-ab28-efb344df16a1{clip-path:url(#0504ee2c-da42-449f-93e2-d69663003fd4);}.c10c8dbc-c59b-4c32-ac2e-d8786052eb14{clip-path:url(#84b0014e-9e9e-437c-8bae-5883239e3ffa);}.\33 8af91ca-f357-429d-a0fe-0e499714cff3{clip-path:url(#a7894912-1bbf-4132-8c2d-dc567ca2513d);}</style><radialGradient id="e148dd03-3081-4d13-98db-d0645718c906" cx="146.84" cy="96.68" r="60.95" gradientUnits="userSpaceOnUse"><stop offset="0" stop-color="#6b6b6b"/><stop offset="1" stop-color="#666"/></radialGradient><clipPath id="9121d9dd-be72-4865-93bd-54ab6c68e706" transform="translate(-31.45)"><polygon id="5c1d90d9-65e5-4e37-b267-47e51cab9f69" data-name="&lt;Polygon&gt;" class="668a694e-1f38-4c92-8e1a-18d60d55ea42" points="176.6 155.26 195.39 193.48 174.2 212.24 136.28 200.97 137.77 165.76 176.6 155.26"/></clipPath><clipPath id="e5014fa6-7755-4dad-adeb-89d61c98b70d" transform="translate(-31.45)"><path id="d9653c17-fc38-4744-aa0c-44af70fb2e1e" data-name="&lt;Compound Clipping Path&gt;" class="b59252a9-23b3-4bbf-9c40-903c82ee2d2d" d="M146.84,21.81a97.85,97.85,0,1,0,97.85,97.85A97.85,97.85,0,0,0,146.84,21.81Zm0,169A71.18,71.18,0,1,1,218,119.66,71.18,71.18,0,0,1,146.84,190.84Z"/></clipPath><clipPath id="337614f7-e014-4771-948b-2760c0135622" transform="translate(-31.45)"><path id="fd187dff-a1e3-4351-9642-78f493b6803c" data-name="&lt;Clipping Path&gt;" class="f23ef24c-daf5-4b76-92bd-5b18259ad04b" d="M87.39,25s36.38,9,59.45,8.65c19.43.32,29.36-1.48,37.28.65a9.23,9.23,0,0,1,6.48,6.16s5.12-2.73,8.11.26,17.18,35.56,18.8,56.73c-.35-.21-3.29,1.5-3.29,1.5S207.8,77.79,195,60c0,0-40.42,6.85-89.61,0C94.77,59.72,80.9,94.64,80.76,99l-4.2-2.16S83.93,62.93,94,46.68C94,46.68,84.83,34,87.39,25Z"/></clipPath><clipPath id="47f1f47f-8bb4-4338-b592-cca2fb0ca794" transform="translate(-31.45)"><path id="e208d274-1e2a-468d-ada6-7c4318911d52" data-name="glasses" class="d8f4146c-ab14-4b31-bba6-c2389703166b" d="M146.84,77.27c-8.59,0-8.58,1.23-8.68,1.21s-.44-.46-.44-.46S118.5,63,83,71.53L71,75.29a.83.83,0,0,0-.57.71c-.1,1.16-.3,3.82,0,4.29s4.69,2.14,5.29,5.53,2.38,21.88,18,31.63c6.63,4.14,17.22,4.35,23.81,2.71,6.8-1.69,20.54-7,21.2-30.66.38-4.34-.7-8,7.55-8h1c8.26,0,7.18,3.66,7.56,8,.65,23.65,14.4,29,21.2,30.66,6.58,1.64,17.17,1.43,23.81-2.71,15.6-9.75,17.37-28.25,18-31.63s4.83-4.93,5.28-5.53.16-3.13.06-4.29a.83.83,0,0,0-.58-.71l-12-3.76C175.18,63,156,78,156,78s-.33.45-.43.46-.09-1.21-8.68-1.21"/></clipPath><clipPath id="1eb79347-c662-4722-a1db-7f82471eb125" transform="translate(-31.45)"><path id="4c77d643-3903-49eb-ac28-7bc3e7518308" data-name="mouth" class="4d371a84-80d1-4349-bbdd-d1ce0feda7f2" d="M109.38,129.61a2.17,2.17,0,0,0-2.5,2.53,40.67,40.67,0,0,0,79.92,0,2.17,2.17,0,0,0-2.5-2.53A236.54,236.54,0,0,1,109.38,129.61Z"/></clipPath><clipPath id="0504ee2c-da42-449f-93e2-d69663003fd4" transform="translate(-31.45)"><path id="b441fadd-2255-44e0-958c-6ac1eb2c514b" data-name="&lt;Clipping Path&gt;" class="f23ef24c-daf5-4b76-92bd-5b18259ad04b" d="M83.48,22.08s38.77,9.56,63.36,9.22c20.72.34,31.3-1.59,39.73.69a9.82,9.82,0,0,1,6.91,6.56s5.46-2.91,8.65.28,18.31,37.9,20,60.47c-.37-.22-3.51,1.6-3.51,1.6s-6.84-22.57-20.52-41.49c0,0-43.08,7.29-95.51,0-11.3-.34-26.08,36.87-26.22,41.49l-4.48-2.3S79.79,62.49,90.5,45.16C90.5,45.16,80.74,31.65,83.48,22.08Z"/></clipPath><clipPath id="84b0014e-9e9e-437c-8bae-5883239e3ffa" transform="translate(-31.45)"><path id="893db2a8-d41f-45a7-8248-5d4272e5f76b" data-name="glasses" class="6f88fb8e-7a73-45df-8959-9cd3dd323fc7" d="M146.84,77.77c-9.16,0-9.15,1.31-9.25,1.29s-.47-.49-.47-.49-20.49-16-58.28-6.92L66,75.66a.87.87,0,0,0-.61.75c-.12,1.24-.32,4.08,0,4.58s5,2.28,5.64,5.89,2.53,23.33,19.16,33.71c7.07,4.43,18.36,4.65,25.38,2.9,7.25-1.8,21.9-7.48,22.6-32.68.4-4.63-.75-8.54,8.05-8.54h1.08c8.79,0,7.65,3.91,8.05,8.54.7,25.2,15.35,30.88,22.6,32.68,7,1.75,18.3,1.53,25.38-2.9,16.62-10.38,18.51-30.1,19.16-33.71s5.15-5.25,5.63-5.89.17-3.34.06-4.58a.87.87,0,0,0-.61-.75l-12.81-4c-37.8-9.1-58.28,6.92-58.28,6.92s-.36.48-.47.49-.1-1.29-9.25-1.29"/></clipPath><clipPath id="a7894912-1bbf-4132-8c2d-dc567ca2513d" transform="translate(-31.45)"><path id="12825c41-b783-4cb7-a12c-c9b5c6d7123b" data-name="mouth" class="4d371a84-80d1-4349-bbdd-d1ce0feda7f2" d="M106.91,133.56a2.33,2.33,0,0,0-2.67,2.7,43.36,43.36,0,0,0,85.19,0,2.32,2.32,0,0,0-2.66-2.7A251.7,251.7,0,0,1,106.91,133.56Z"/></clipPath></defs><title>favicon</title><g id="024f4c4a-a134-44c7-a85a-1e61231d114b" data-name="Layer 2"><g id="ee75ea6f-076f-46cd-97a9-4dc9946a4c4a" data-name="Eindwerk"><g id="64d5bef9-8fa7-4fad-8c4f-0582c2f45f29" data-name="QuestionSucces"><g id="53db0c09-5ab5-49c6-b286-2a64536270b2" data-name="Logo"><g id="ab4b0fdd-c8df-4dc6-80f9-d3d848603574" data-name="title"><path d="M262.43,166.54a10,10,0,0,1-2.07,3.25,8.38,8.38,0,0,1-2.8,1.93,8,8,0,0,1-3.21.61,8.68,8.68,0,0,1-3.24-.66,9.73,9.73,0,0,1-3-1.86,8.08,8.08,0,0,1-2.67-6,10.73,10.73,0,0,1,2.87-7.07,8.47,8.47,0,0,1,2.83-1.89,8,8,0,0,1,3.22-.57,9.4,9.4,0,0,1,3.28.69c.27.11.54.23.8.36a4.83,4.83,0,0,1,.66.38l-4.68,11.5a3.48,3.48,0,0,0,2.85-.17,3.91,3.91,0,0,0,1.76-2,4.57,4.57,0,0,0,.31-2.21,2.74,2.74,0,0,0-.84-1.84l2.77-3.57a7.8,7.8,0,0,1,1.84,4.06A9.65,9.65,0,0,1,262.43,166.54Zm-8.2-7.18a3.93,3.93,0,0,0-2.78.11,3.49,3.49,0,0,0-1.79,1.94,3.39,3.39,0,0,0-.06,2.65,3.91,3.91,0,0,0,1.9,2Z" transform="translate(-31.45)"/><path d="M255.57,181.58l-3,4.15-7.66-5.53a3.85,3.85,0,0,0-2.31-.92,2,2,0,0,0-1.53.83,2.56,2.56,0,0,0-.42,1,3.39,3.39,0,0,0-.07,1.15,5.22,5.22,0,0,0,.9,2.39l7.81,5.64-3,4.15-7.65-5.53a3.87,3.87,0,0,0-2.31-.92,2,2,0,0,0-1.53.83,3.12,3.12,0,0,0-.51,2.1,4.56,4.56,0,0,0,.92,2.42L243,199l-3,4.15-13.62-9.83,2.7-3.74,2.28,1.65a6.12,6.12,0,0,1-.43-3.4,8.22,8.22,0,0,1,1.52-3.47,5.9,5.9,0,0,1,1.28-1.34,4.42,4.42,0,0,1,1.37-.69,3.7,3.7,0,0,1,1.39-.15,4.57,4.57,0,0,1,1.32.33,6.68,6.68,0,0,1-.48-3.46,7.58,7.58,0,0,1,1.41-3.41,5,5,0,0,1,2-1.74,4.18,4.18,0,0,1,2.14-.33,5.85,5.85,0,0,1,2.09.62,14.27,14.27,0,0,1,1.87,1.13Z" transform="translate(-31.45)"/><path d="M226,216.06a6.82,6.82,0,0,1-2,1.21,5.51,5.51,0,0,1-2.13.35,5.3,5.3,0,0,1-2-.49,5,5,0,0,1-1.73-1.32,4.81,4.81,0,0,1-1.08-2.07,5.1,5.1,0,0,1,0-2.3,7.26,7.26,0,0,1,1-2.36,9.66,9.66,0,0,1,1.94-2.21,11.23,11.23,0,0,1,1.67-1.21,7.08,7.08,0,0,1,1.65-.73l-.5-.58q-1.91-2.21-4.45,0a7.68,7.68,0,0,0-1.68,2.06,12.5,12.5,0,0,0-1.08,2.77l-3.23-1.45a13.94,13.94,0,0,1,1.55-3.49,13,13,0,0,1,2.54-2.89,8.74,8.74,0,0,1,5.63-2.49,6.58,6.58,0,0,1,5,2.62l2.82,3.28a1.77,1.77,0,0,0,.88.65,1.2,1.2,0,0,0,.88-.27l2.82,3.27a8.11,8.11,0,0,1-.79.95q-.37.39-.72.69a3.59,3.59,0,0,1-2,1,2.48,2.48,0,0,1-1.74-.59l-.57-.52a7.66,7.66,0,0,1-.59,3.41A7.36,7.36,0,0,1,226,216.06Zm-1.26-3.77a4.72,4.72,0,0,0,1-1.28,3.57,3.57,0,0,0,.48-1.42,1.57,1.57,0,0,0-.23-1.41L225,207a7.73,7.73,0,0,0-1.37.65,8.39,8.39,0,0,0-1.2.84,4,4,0,0,0-1.34,2,1.93,1.93,0,0,0,.4,1.85,1.91,1.91,0,0,0,1.52.7A2.72,2.72,0,0,0,224.76,212.29Z" transform="translate(-31.45)"/><path d="M211.4,223.55a8.53,8.53,0,0,1-4.06,5,10.59,10.59,0,0,1-4.1,1.31,10.44,10.44,0,0,1-4.2-.4,11.18,11.18,0,0,1-3.85-2.09,12.73,12.73,0,0,1-3.06-3.73,11.34,11.34,0,0,1-1.39-4.28A11.58,11.58,0,0,1,202,206.68a8.66,8.66,0,0,1,4.87,1.45l-2,4.47a5.5,5.5,0,0,0-3.1-1,6.13,6.13,0,0,0-3.16.78,5.35,5.35,0,0,0-1.83,1.62,5.58,5.58,0,0,0-.9,2.18,7,7,0,0,0,0,2.5,8.35,8.35,0,0,0,1,2.55,8,8,0,0,0,1.71,2.16,6.59,6.59,0,0,0,2.14,1.28,5.7,5.7,0,0,0,2.35.32,5.82,5.82,0,0,0,2.39-.74,7.25,7.25,0,0,0,3.46-5.18l-.34-.61-3.86,2.14-1.85-3.33,7.66-4.26,5.77,10.38-3.81,2.11Z" transform="translate(-31.45)"/><path d="M170.14,218.06l4.93-1.36,4.61,16.76c.34,1.23,1,1.71,2.08,1.42a3.48,3.48,0,0,0,.79-.34,3.07,3.07,0,0,0,.73-.54l1.66,3.52a10,10,0,0,1-1.94,1.27,11.92,11.92,0,0,1-2.19.86,4.66,4.66,0,0,1-3.57-.21,4.45,4.45,0,0,1-2-2.9Z" transform="translate(-31.45)"/><path d="M159.67,243.75a6.61,6.61,0,0,1-2.36-.11,5.38,5.38,0,0,1-2-.88,5.33,5.33,0,0,1-1.42-1.53,5.05,5.05,0,0,1-.71-2.06,5,5,0,0,1,.24-2.32,5.38,5.38,0,0,1,1.26-1.93,7.37,7.37,0,0,1,2.11-1.42,9.32,9.32,0,0,1,2.84-.78,11.84,11.84,0,0,1,2.05-.08,6.59,6.59,0,0,1,1.78.31l-.09-.76c-.24-1.93-1.48-2.75-3.7-2.48a7.53,7.53,0,0,0-2.54.79,12.68,12.68,0,0,0-2.44,1.71l-1.89-3a13.74,13.74,0,0,1,3.23-2.05,13.1,13.1,0,0,1,3.71-1,8.76,8.76,0,0,1,6.07,1,6.56,6.56,0,0,1,2.71,5l.54,4.29a1.83,1.83,0,0,0,.37,1,1.2,1.2,0,0,0,.89.26l.54,4.29a9.52,9.52,0,0,1-1.18.36c-.36.07-.68.13-1,.17a3.55,3.55,0,0,1-2.23-.29,2.48,2.48,0,0,1-1.12-1.45l-.19-.75a7.74,7.74,0,0,1-2.37,2.52A7.27,7.27,0,0,1,159.67,243.75Zm1-3.84a4.63,4.63,0,0,0,1.57-.49,3.74,3.74,0,0,0,1.19-.92,1.59,1.59,0,0,0,.58-1.3l-.2-1.58a7.85,7.85,0,0,0-1.5-.22,7.72,7.72,0,0,0-1.46,0,3.89,3.89,0,0,0-2.22.92,2,2,0,0,0-.7,1.77,1.91,1.91,0,0,0,.89,1.42A2.7,2.7,0,0,0,160.7,239.91Z" transform="translate(-31.45)"/><path d="M143.26,244l.27-16.79,5.12.08-.28,16.8Zm.3-18.71.07-4.64,5.12.08-.07,4.64Z" transform="translate(-31.45)"/><path d="M127.4,242.57l-3.67-17.44,5.24.7,1.95,13.08,5.37-12.1,4.73.64-8.11,15.86Z" transform="translate(-31.45)"/><path d="M112.09,239.15l4.35-16.22,4.94,1.32L117,240.48Zm4.85-18.08,1.2-4.48,4.94,1.33-1.2,4.48Z" transform="translate(-31.45)"/><path d="M112.33,226.38a9.84,9.84,0,0,0-3.35-.63,4.06,4.06,0,0,0-2.65.83L102.71,236l-4.78-1.83,6-15.69,4.39,1.69-1.22,3.17a7.19,7.19,0,0,1,3-1.69,5.21,5.21,0,0,1,3.06.11l.48.19a1.47,1.47,0,0,1,.28.14Z" transform="translate(-31.45)"/><path d="M101.87,216.46l-6-3.47L86.8,228.66,82.26,226l9.09-15.66-6-3.49,2.31-4,16.53,9.58Z" transform="translate(-31.45)"/><path d="M58.65,207.84a9.84,9.84,0,0,1-2.19-3.17,8.37,8.37,0,0,1-.69-3.34,8.15,8.15,0,0,1,.68-3.19,8.91,8.91,0,0,1,1.87-2.73,9.78,9.78,0,0,1,2.87-2,8.43,8.43,0,0,1,3.25-.75,8.19,8.19,0,0,1,3.35.65,9.76,9.76,0,0,1,3.2,2.21,9.9,9.9,0,0,1,2.2,3.19,8.47,8.47,0,0,1,.64,3.34,8.21,8.21,0,0,1-.73,3.19A9.23,9.23,0,0,1,71.18,208c-.21.21-.42.41-.64.6s-.42.34-.6.46l-8.77-8.79a3.48,3.48,0,0,0-1,2.69,3.9,3.9,0,0,0,1.16,2.4,4.58,4.58,0,0,0,1.91,1.15,2.79,2.79,0,0,0,2-.06l2.22,3.94a7.84,7.84,0,0,1-4.46.11A9.51,9.51,0,0,1,58.65,207.84Zm9.8-4.77a3.84,3.84,0,0,0,1-2.6,3.47,3.47,0,0,0-1.09-2.4A3.41,3.41,0,0,0,65.92,197a4,4,0,0,0-2.58,1Z" transform="translate(-31.45)"/><path d="M48.48,196.25,45.6,192l7.81-5.3A3.75,3.75,0,0,0,55,184.83a2.19,2.19,0,0,0-.36-1.89,3,3,0,0,0-.72-.69,3.84,3.84,0,0,0-1.08-.5,5.36,5.36,0,0,0-1.29-.23,4.28,4.28,0,0,0-1.37.16l-8,5.41-2.88-4.23L58.7,169.73,61.58,174l-7.76,5.27a6.44,6.44,0,0,1,3.3.72,7,7,0,0,1,2.55,2.31,5.45,5.45,0,0,1,1,2.6,4.46,4.46,0,0,1-.34,2.17,5.83,5.83,0,0,1-1.28,1.77,13.35,13.35,0,0,1-1.73,1.41Z" transform="translate(-31.45)"/><path d="M52.89,170.3l-2.73-6.36-16.64,7.14-2.07-4.82,16.65-7.14-2.74-6.38,4.23-1.82,7.53,17.56Z" transform="translate(-31.45)"/></g><circle id="382e2729-0f65-4501-b230-ae53496967df" data-name="background" class="d772de9d-ebc9-4be2-8631-662e0324997a" cx="115.39" cy="121.87" r="83.24"/><g id="f68eb318-1caf-40e9-9314-75a5d649f9e7" data-name="body"><polygon id="fe3c38b3-8753-465f-a9fb-40214f305e87" data-name="&lt;Polygon&gt;" class="96974692-8355-48fe-b4db-af4e8b030f27" points="145.15 155.26 163.94 193.48 142.75 212.24 104.84 200.97 106.32 165.76 145.15 155.26"/><g class="77effac6-f0b7-4885-a3fd-98dcc1b53ea6"><image class="0d80d910-192c-4b47-8130-893a39a5e30e" width="181" height="181" transform="translate(24.73 16)" xlink:href="favicon1.png"/><circle class="d772de9d-ebc9-4be2-8631-662e0324997a" cx="115.39" cy="106.63" r="75.33"/></g><polygon id="344f18b9-12c0-487b-96bd-907b0a3ee0c9" data-name="&lt;Polygon&gt;" class="c8d5c024-232e-47cb-82c1-c55e65286ffe" points="145.15 155.26 163.94 193.48 142.75 212.24 104.84 200.97 106.32 165.76 145.15 155.26"/></g><path class="72b2c787-5498-4fe0-bdb2-eda0bcf0f8ba" d="M242.26,97.88a98.9,98.9,0,0,1,2.42,21.78,97.47,97.47,0,0,1-21.32,61l0,0L202.49,164A70.91,70.91,0,0,0,218,119.66a71.87,71.87,0,0,0-1.77-15.84l26-5.93h0Z" transform="translate(-31.45)"/><path class="d6b74202-8686-435b-bd5f-b7f3f49b7656" d="M242.25,97.88h0l-26,5.93a71.32,71.32,0,0,0-38.52-48.3l11.56-24,0,0A97.92,97.92,0,0,1,242.25,97.88Z" transform="translate(-31.45)"/><path class="8715bc55-52d2-46a4-8287-7eba60610f61" d="M223.34,180.67l0,0a97.63,97.63,0,0,1-76.53,36.82V190.85A71.06,71.06,0,0,0,202.49,164Z" transform="translate(-31.45)"/><path class="edbeb798-600c-4270-a4c3-e8f8c848abaa" d="M189.31,31.47l0,0-11.56,24a71.29,71.29,0,0,0-61.78,0l-11.57-24v0a98.28,98.28,0,0,1,84.94,0Z" transform="translate(-31.45)"/><path class="cff39f53-c7ab-49d1-a144-eced4617b72b" d="M146.83,190.85v26.66a97.61,97.61,0,0,1-76.52-36.82l0,0L91.19,164A71.05,71.05,0,0,0,146.83,190.85Z" transform="translate(-31.45)"/><path class="3eb0dd08-a2e8-4560-a401-15de5baff80f" d="M104.38,31.5l11.57,24a71.32,71.32,0,0,0-38.52,48.3l-26-5.93h0a97.9,97.9,0,0,1,53-66.41Z" transform="translate(-31.45)"/><path class="c49cc937-e668-4fdc-9270-a6273cddfee7" d="M91.19,164,70.34,180.67l0,0a98.18,98.18,0,0,1-18.9-82.81h0l26,5.93A71.2,71.2,0,0,0,91.19,164Z" transform="translate(-31.45)"/><g id="3a1b24e7-c4b1-48ba-b0d3-7bb79ffa8df4" data-name="head_shadow"><g class="4cf93bed-fcfe-48ff-a0d4-e5ed8ce90408"><image width="205" height="200" transform="translate(13.73)" xlink:href="favicon2.png"/><g id="a1f99265-e12a-42e3-9160-11182ce2fd75" data-name="head"><path class="cea6d003-93d0-4ddf-8fd8-1f0be5032b31" d="M217.51,104.35a70.68,70.68,0,0,1-141.35,0c0-1.38,0-2.74.12-4.09a70.67,70.67,0,0,1,141.23,4.09Z" transform="translate(-31.45)"/><path d="M217.76,104.35a70.91,70.91,0,1,1-98-65.36,71.44,71.44,0,0,1,54.13,0,70.84,70.84,0,0,1,43.86,65.35Zm-.5,0a70.18,70.18,0,1,0-5.43,26.92A70.61,70.61,0,0,0,217.26,104.35Z" transform="translate(-31.45)"/></g><path id="c9158853-042b-487a-aee3-82a6a2f7e24c" data-name="&lt;Clipping Path&gt;" class="2e7336a4-29ce-4eb0-b42a-fca3efe27f78" d="M87.39,25s36.38,9,59.45,8.65c19.43.32,29.36-1.48,37.28.65a9.23,9.23,0,0,1,6.48,6.16s5.12-2.73,8.11.26,17.18,35.56,18.8,56.73c-.35-.21-3.29,1.5-3.29,1.5S207.8,77.79,195,60c0,0-40.42,6.85-89.61,0C94.77,59.72,80.9,94.64,80.76,99l-4.2-2.16S83.93,62.93,94,46.68C94,46.68,84.83,34,87.39,25Z" transform="translate(-31.45)"/><g class="fb282ce2-7e90-42e1-b25c-6d4a081a1a18"><path class="2373bf7f-af32-4136-9650-1ba7207829be" d="M85,32.39s36.89,7.69,60,7.37c19.44.32,28.53-3.26,36.44-1.12a12.21,12.21,0,0,1,7.43,6.26s4.71-3,7.7,0,17.29,34.43,18.91,55.6c-.35-.21-3.29,1.5-3.29,1.5s-6.42-21.17-19.25-38.92c0,0-40.42,6.84-89.61,0-10.6-.32-24.46,34.59-24.6,38.92l-4.2-2.15S81.81,66,91.86,49.71C91.86,49.71,82.38,41.37,85,32.39Z" transform="translate(-31.45)"/></g><path id="03e6db9e-d546-4ecb-aa88-2bfdfc4336ae" data-name="&lt;Clipping Path&gt;" class="4bd575c9-5ec7-4540-a582-6af129e37ca3" d="M87.39,25s36.38,9,59.45,8.65c19.43.32,29.36-1.48,37.28.65a9.23,9.23,0,0,1,6.48,6.16s5.12-2.73,8.11.26,17.18,35.56,18.8,56.73c-.35-.21-3.29,1.5-3.29,1.5S207.8,77.79,195,60c0,0-40.42,6.85-89.61,0C94.77,59.72,80.9,94.64,80.76,99l-4.2-2.16S83.93,62.93,94,46.68C94,46.68,84.83,34,87.39,25Z" transform="translate(-31.45)"/><path id="1e137763-2dea-47d2-b2bc-09570964c8cb" data-name="glasses" class="e10fbe9b-335c-43c9-a83f-9a1296fb693c" d="M146.84,77.27c-8.59,0-8.58,1.23-8.68,1.21s-.44-.46-.44-.46S118.5,63,83,71.53L71,75.29a.83.83,0,0,0-.57.71c-.1,1.16-.3,3.82,0,4.29s4.69,2.14,5.29,5.53,2.38,21.88,18,31.63c6.63,4.14,17.22,4.35,23.81,2.71,6.8-1.69,20.54-7,21.2-30.66.38-4.34-.7-8,7.55-8h1c8.26,0,7.18,3.66,7.56,8,.65,23.65,14.4,29,21.2,30.66,6.58,1.64,17.17,1.43,23.81-2.71,15.6-9.75,17.37-28.25,18-31.63s4.83-4.93,5.28-5.53.16-3.13.06-4.29a.83.83,0,0,0-.58-.71l-12-3.76C175.18,63,156,78,156,78s-.33.45-.43.46-.09-1.21-8.68-1.21" transform="translate(-31.45)"/><g class="2bd71129-4ed7-4475-b0d2-563cce1913b3"><g class="4bb4ef7e-05d0-4587-9f51-c5c38bc0bdd1"><polygon class="7f91bf05-1f82-4238-a27a-3ec8740badfc" points="74.59 109.13 63.05 129.12 73.09 134.92 85.15 114.04 74.59 109.13"/><polygon class="7f91bf05-1f82-4238-a27a-3ec8740badfc" points="86.66 111.89 113.16 65.99 103.11 60.2 76.43 106.41 86.66 111.89"/></g><g class="4bb4ef7e-05d0-4587-9f51-c5c38bc0bdd1"><polygon class="7f91bf05-1f82-4238-a27a-3ec8740badfc" points="156.08 109.25 144.53 129.25 154.58 135.05 166.64 114.16 156.08 109.25"/><polygon class="7f91bf05-1f82-4238-a27a-3ec8740badfc" points="168.14 112.02 194.64 66.12 184.6 60.32 157.92 106.53 168.14 112.02"/></g></g><path id="f56423ca-4a21-48ce-8056-9ff919cc1eef" data-name="glasses" class="c8d5c024-232e-47cb-82c1-c55e65286ffe" d="M146.84,77.27c-8.59,0-8.58,1.23-8.68,1.21s-.44-.46-.44-.46S118.5,63,83,71.53L71,75.29a.83.83,0,0,0-.57.71c-.1,1.16-.3,3.82,0,4.29s4.69,2.14,5.29,5.53,2.38,21.88,18,31.63c6.63,4.14,17.22,4.35,23.81,2.71,6.8-1.69,20.54-7,21.2-30.66.38-4.34-.7-8,7.55-8h1c8.26,0,7.18,3.66,7.56,8,.65,23.65,14.4,29,21.2,30.66,6.58,1.64,17.17,1.43,23.81-2.71,15.6-9.75,17.37-28.25,18-31.63s4.83-4.93,5.28-5.53.16-3.13.06-4.29a.83.83,0,0,0-.58-.71l-12-3.76C175.18,63,156,78,156,78s-.33.45-.43.46-.09-1.21-8.68-1.21" transform="translate(-31.45)"/><path id="7f834eb9-12d2-4207-96ca-b963c2521e31" data-name="mouth" class="a136af24-0956-4ffd-83d1-d52e854c6098" d="M109.38,129.61a2.17,2.17,0,0,0-2.5,2.53,40.67,40.67,0,0,0,79.92,0,2.17,2.17,0,0,0-2.5-2.53A236.54,236.54,0,0,1,109.38,129.61Z" transform="translate(-31.45)"/><g class="33dcb33f-598f-41cd-b75f-d59979facf90"><ellipse class="6f102584-1adf-4433-b8a9-d0e6d7b60946" cx="123.92" cy="162.56" rx="16.16" ry="10.98"/></g><path id="e9be3796-5a90-4e00-b047-59e72b7c3bcf" data-name="mouth" class="c8d5c024-232e-47cb-82c1-c55e65286ffe" d="M109.38,129.61a2.17,2.17,0,0,0-2.5,2.53,40.67,40.67,0,0,0,79.92,0,2.17,2.17,0,0,0-2.5-2.53A236.54,236.54,0,0,1,109.38,129.61Z" transform="translate(-31.45)"/></g></g><g id="d942dbd7-0907-4902-bf97-45ff7ef7cd81" data-name="head"><path class="cea6d003-93d0-4ddf-8fd8-1f0be5032b31" d="M222.17,106.63a75.33,75.33,0,1,1-150.66,0c0-1.46,0-2.92.12-4.36a75.33,75.33,0,0,1,150.54,4.36Z" transform="translate(-31.45)"/><path d="M222.42,106.63a75.39,75.39,0,1,1-5.82-28.9A75.7,75.7,0,0,1,222.42,106.63Zm-.5,0a75,75,0,1,0-5.79,28.7A75.13,75.13,0,0,0,221.92,106.63Z" transform="translate(-31.45)"/></g><g id="d383036a-808b-4067-bd3a-26ec946b4961" data-name="hair"><path id="a2b8b551-64e6-4744-bb48-ff2569bfe4b2" data-name="&lt;Clipping Path&gt;" class="2e7336a4-29ce-4eb0-b42a-fca3efe27f78" d="M83.48,22.08s38.77,9.56,63.36,9.22c20.72.34,31.3-1.59,39.73.69a9.82,9.82,0,0,1,6.91,6.56s5.46-2.91,8.65.28,18.31,37.9,20,60.47c-.37-.22-3.51,1.6-3.51,1.6s-6.84-22.57-20.52-41.49c0,0-43.08,7.29-95.51,0-11.3-.34-26.08,36.87-26.22,41.49l-4.48-2.3S79.79,62.49,90.5,45.16C90.5,45.16,80.74,31.65,83.48,22.08Z" transform="translate(-31.45)"/><g class="5b3f6d7a-6db1-4519-ab28-efb344df16a1"><path class="2373bf7f-af32-4136-9650-1ba7207829be" d="M80.87,29.93s39.33,8.2,63.92,7.86c20.71.34,30.4-3.47,38.84-1.19a13,13,0,0,1,7.92,6.66s5-3.19,8.21,0S218.18,80,219.91,102.53c-.38-.22-3.51,1.6-3.51,1.6s-6.84-22.57-20.52-41.49c0,0-43.09,7.3-95.52,0-11.29-.34-26.07,36.87-26.21,41.49l-4.49-2.29S77.52,65.72,88.24,48.4C88.24,48.4,78.14,39.5,80.87,29.93Z" transform="translate(-31.45)"/></g><path id="b5b61742-fa7e-4a32-93d5-b2a6d190078a" data-name="&lt;Clipping Path&gt;" class="4bd575c9-5ec7-4540-a582-6af129e37ca3" d="M83.48,22.08s38.77,9.56,63.36,9.22c20.72.34,31.3-1.59,39.73.69a9.82,9.82,0,0,1,6.91,6.56s5.46-2.91,8.65.28,18.31,37.9,20,60.47c-.37-.22-3.51,1.6-3.51,1.6s-6.84-22.57-20.52-41.49c0,0-43.08,7.29-95.51,0-11.3-.34-26.08,36.87-26.22,41.49l-4.48-2.3S79.79,62.49,90.5,45.16C90.5,45.16,80.74,31.65,83.48,22.08Z" transform="translate(-31.45)"/></g><g id="067e23a2-4a36-4852-81ea-cee86f18acbb" data-name="glasses"><path id="10a2a154-a544-4b58-b822-f41e2d9940e9" data-name="glasses" class="6fc6de97-6501-448f-ab93-6a669034558b" d="M146.84,77.77c-9.16,0-9.15,1.31-9.25,1.29s-.47-.49-.47-.49-20.49-16-58.28-6.92L66,75.66a.87.87,0,0,0-.61.75c-.12,1.24-.32,4.08,0,4.58s5,2.28,5.64,5.89,2.53,23.33,19.16,33.71c7.07,4.43,18.36,4.65,25.38,2.9,7.25-1.8,21.9-7.48,22.6-32.68.4-4.63-.75-8.54,8.05-8.54h1.08c8.79,0,7.65,3.91,8.05,8.54.7,25.2,15.35,30.88,22.6,32.68,7,1.75,18.3,1.53,25.38-2.9,16.62-10.38,18.51-30.1,19.16-33.71s5.15-5.25,5.63-5.89.17-3.34.06-4.58a.87.87,0,0,0-.61-.75l-12.81-4c-37.8-9.1-58.28,6.92-58.28,6.92s-.36.48-.47.49-.1-1.29-9.25-1.29" transform="translate(-31.45)"/><g class="c10c8dbc-c59b-4c32-ac2e-d8786052eb14"><g id="7c2761c2-0fda-4191-a55b-89afc1a8279b" data-name="left_shine" class="4bb4ef7e-05d0-4587-9f51-c5c38bc0bdd1"><polygon class="7f91bf05-1f82-4238-a27a-3ec8740badfc" points="71.91 111.73 59.6 133.04 70.31 139.22 83.16 116.96 71.91 111.73"/><polygon class="7f91bf05-1f82-4238-a27a-3ec8740badfc" points="84.76 114.67 113.01 65.75 102.31 59.57 73.86 108.83 84.76 114.67"/></g><g id="3664c174-51ae-4ce2-8dba-cc75ece66e23" data-name="right_shine" class="4bb4ef7e-05d0-4587-9f51-c5c38bc0bdd1"><polygon class="7f91bf05-1f82-4238-a27a-3ec8740badfc" points="158.76 111.86 146.46 133.18 157.16 139.36 170.01 117.09 158.76 111.86"/><polygon class="7f91bf05-1f82-4238-a27a-3ec8740badfc" points="171.62 114.81 199.87 65.88 189.16 59.7 160.72 108.97 171.62 114.81"/></g></g><path id="390f0651-f785-4483-9707-e42bb758d0cb" data-name="glasses" class="c8d5c024-232e-47cb-82c1-c55e65286ffe" d="M146.84,77.77c-9.16,0-9.15,1.31-9.25,1.29s-.47-.49-.47-.49-20.49-16-58.28-6.92L66,75.66a.87.87,0,0,0-.61.75c-.12,1.24-.32,4.08,0,4.58s5,2.28,5.64,5.89,2.53,23.33,19.16,33.71c7.07,4.43,18.36,4.65,25.38,2.9,7.25-1.8,21.9-7.48,22.6-32.68.4-4.63-.75-8.54,8.05-8.54h1.08c8.79,0,7.65,3.91,8.05,8.54.7,25.2,15.35,30.88,22.6,32.68,7,1.75,18.3,1.53,25.38-2.9,16.62-10.38,18.51-30.1,19.16-33.71s5.15-5.25,5.63-5.89.17-3.34.06-4.58a.87.87,0,0,0-.61-.75l-12.81-4c-37.8-9.1-58.28,6.92-58.28,6.92s-.36.48-.47.49-.1-1.29-9.25-1.29" transform="translate(-31.45)"/></g><g id="01f432eb-fc7c-4477-aed7-24c84db5912a" data-name="mouth"><path id="51badfd7-10c3-4b1d-ac31-eaf146f01c7d" data-name="mouth" class="a136af24-0956-4ffd-83d1-d52e854c6098" d="M106.91,133.56a2.33,2.33,0,0,0-2.67,2.7,43.36,43.36,0,0,0,85.19,0,2.32,2.32,0,0,0-2.66-2.7A251.7,251.7,0,0,1,106.91,133.56Z" transform="translate(-31.45)"/><g class="38af91ca-f357-429d-a0fe-0e499714cff3"><ellipse id="a38a4051-b886-43d3-a0b7-238eab8796a0" data-name="tongue" class="6f102584-1adf-4433-b8a9-d0e6d7b60946" cx="124.48" cy="168.68" rx="17.23" ry="11.7"/></g><path id="6f2992ee-f964-4eba-a8eb-922aec723b82" data-name="mouth" class="c8d5c024-232e-47cb-82c1-c55e65286ffe" d="M106.91,133.56a2.33,2.33,0,0,0-2.67,2.7,43.36,43.36,0,0,0,85.19,0,2.32,2.32,0,0,0-2.66-2.7A251.7,251.7,0,0,1,106.91,133.56Z" transform="translate(-31.45)"/></g><path id="a2b0ab16-b74b-4fad-815f-9ad1a15f4627" data-name="nose" class="c8d5c024-232e-47cb-82c1-c55e65286ffe" d="M154.05,120.94c0,2.67-3.13,3.83-7,3.83s-7-1.16-7-3.83" transform="translate(-31.45)"/></g></g></g></g></svg>