<svg xmlns="http://www.w3.org/2000/svg" viewBox="0 0 28.51 28.51"><defs><style>.\33 981c421-766a-4c7b-8446-42cc5a39472d{fill:#d6d6d6;stroke:#000;stroke-miterlimit:10;}</style></defs><title>Asset 6</title><g id="8fbea8c9-318c-49bb-aef9-830e27d9584a" data-name="Layer 2"><g id="55612752-fd6a-44b0-8142-70ed10f2fab7" data-name="Eindwerk"><g id="d0c1045c-4f1b-4895-bc94-30568ea4ceb7" data-name="Homepage"><g id="adc34792-8935-4591-b126-7cc932492745" data-name="buttons"><path class="3981c421-766a-4c7b-8446-42cc5a39472d" d="M20.57,14.26A6.31,6.31,0,1,1,14.26,8,6.32,6.32,0,0,1,20.57,14.26Zm7-1.34-2.75-.63a.58.58,0,0,1-.44-.44,10.34,10.34,0,0,0-1.26-3,.58.58,0,0,1,0-.62l1.5-2.39a.59.59,0,0,0-.09-.73L23.44,4A.58.58,0,0,0,23,3.82a.62.62,0,0,0-.32.09L20.33,5.4a.62.62,0,0,1-.32.09.64.64,0,0,1-.3-.08,10.26,10.26,0,0,0-3.05-1.27.58.58,0,0,1-.44-.44L15.59,1A.59.59,0,0,0,15,.5H13.49a.59.59,0,0,0-.57.46L12.29,3.7a.58.58,0,0,1-.44.44,10.1,10.1,0,0,0-3,1.27.68.68,0,0,1-.31.08.56.56,0,0,1-.31-.09L5.8,3.91a.61.61,0,0,0-.31-.09A.59.59,0,0,0,5.07,4L4,5.07a.58.58,0,0,0-.08.73L5.4,8.19a.6.6,0,0,1,0,.62,10.1,10.1,0,0,0-1.27,3,.58.58,0,0,1-.44.44L1,12.92a.59.59,0,0,0-.46.57V15a.59.59,0,0,0,.46.57l2.74.63a.58.58,0,0,1,.44.44,10.26,10.26,0,0,0,1.27,3.05.6.6,0,0,1,0,.62L3.91,22.71a.57.57,0,0,0,.08.73l1.08,1.08a.56.56,0,0,0,.42.18.61.61,0,0,0,.31-.09l2.39-1.5A.56.56,0,0,1,8.5,23a.59.59,0,0,1,.31.09,10.34,10.34,0,0,0,3,1.26.58.58,0,0,1,.44.44l.63,2.75a.59.59,0,0,0,.57.45H15a.59.59,0,0,0,.57-.45l.63-2.75a.58.58,0,0,1,.44-.44,10.51,10.51,0,0,0,3.05-1.26A.55.55,0,0,1,20,23a.62.62,0,0,1,.32.09l2.38,1.5a.62.62,0,0,0,.32.09.55.55,0,0,0,.41-.18l1.08-1.08a.59.59,0,0,0,.09-.73l-1.5-2.38a.58.58,0,0,1,0-.62,10.51,10.51,0,0,0,1.26-3.05.58.58,0,0,1,.44-.44l2.75-.63A.59.59,0,0,0,28,15V13.49A.59.59,0,0,0,27.56,12.92Z"/></g></g></g></g></svg>