<?xml version="1.0" encoding="utf-8"?>
<!-- Generator: Adobe Illustrator 22.0.1, SVG Export Plug-In . SVG Version: 6.00 Build 0)  -->
<svg version="1.1" id="Layer_1" xmlns="http://www.w3.org/2000/svg" xmlns:xlink="http://www.w3.org/1999/xlink" x="0px" y="0px"
	 viewBox="0 0 270 270" style="enable-background:new 0 0 270 270;" xml:space="preserve">
<style type="text/css">
	.st0{fill:none;}
	.st1{fill:#1A1A1A;}
	.st2{clip-path:url(#XMLID_3_);}
	.st3{fill:#F32732;}
	.st4{fill:#FF9400;}
	.st5{fill:#F352AF;}
	.st6{fill:#F7DD42;}
	.st7{fill:#8D45B5;}
	.st8{fill:#20C868;}
	.st9{fill:#1675CF;}
	.st10{clip-path:url(#XMLID_4_);}
	.st11{fill:#EDCF9A;}
	.st12{clip-path:url(#XMLID_9_);fill:#694100;}
	.st13{opacity:0.9;clip-path:url(#glasses_2_);}
	.st14{fill:#F2F2F2;}
	.st15{clip-path:url(#mouth_2_);fill:#AA0004;}
	.st16{clip-path:url(#XMLID_11_);fill:#694100;}
	.st17{opacity:0.9;clip-path:url(#glasses_8_);}
	.st18{clip-path:url(#mouth_7_);fill:#AA0004;}
	.st19{fill:none;stroke:#000000;stroke-width:1.0812;stroke-miterlimit:10;}
</style>
<g id="Logo_2_">
	<path id="title_x5F_2_x5F_" class="st0" d="M240.6,123.2c0,58.4-47.4,105.8-105.8,105.8S29,181.7,29,123.2S76.4,17.4,134.8,17.4
		S240.6,64.8,240.6,123.2z"/>
	<text id="title_1_">	<textPath  xlink:href="#title_x5F_2_x5F_" startOffset="38806.0547%">
<tspan  style="font-family:'Raleway-ExtraBold'; font-size:34.5982px;">emaG laivirT ehT</tspan>	</textPath>
</text>
	<circle id="background_1_" class="st1" cx="134.8" cy="125.6" r="90"/>
	<g id="body_1_">
		<defs>
			<polygon id="XMLID_8_" points="167,161.7 187.3,203 164.4,223.3 123.4,211.1 125,173.1 			"/>
		</defs>
		<use xlink:href="#XMLID_8_"  style="overflow:visible;fill:#D8BC8F;"/>
		<clipPath id="XMLID_3_">
			<use xlink:href="#XMLID_8_"  style="overflow:visible;"/>
		</clipPath>
		<g class="st2">
			
				<image style="overflow:visible;opacity:0.82;" width="197" height="197" xlink:href="14DF4B8E.png"  transform="matrix(1 0 0 1 36.9542 10.8053)">
			</image>
			<g>
				<circle class="st1" cx="134.8" cy="109.1" r="81.4"/>
			</g>
		</g>
		<use xlink:href="#XMLID_8_"  style="overflow:visible;fill:none;stroke:#000000;stroke-width:1.0812;stroke-miterlimit:10;"/>
	</g>
	<g id="color_x5F_ring_1_">
		<g>
			<path class="st3" d="M238,99.7c1.7,7.6,2.6,15.5,2.6,23.6c0,25-8.6,47.9-23.1,66l0,0l-22.5-18c10.5-13.2,16.8-29.8,16.8-48
				c0-5.9-0.7-11.6-1.9-17.1L238,99.7L238,99.7z"/>
			<path class="st4" d="M238,99.7L238,99.7l-28.1,6.4C204.6,83,189,63.9,168.2,53.9l12.5-26l0,0C209.4,41.7,230.8,68,238,99.7z"/>
			<path class="st5" d="M217.5,189.2L217.5,189.2c-19.4,24.3-49.2,39.8-82.7,39.8v-28.8c24.4,0,46.1-11.3,60.2-29L217.5,189.2z"/>
			<path class="st6" d="M180.8,27.9L180.8,27.9l-12.5,26c-10.1-4.9-21.4-7.6-33.4-7.6s-23.3,2.7-33.4,7.6l-12.5-26l0,0
				c13.9-6.7,29.5-10.4,45.9-10.4S166.9,21.2,180.8,27.9z"/>
			<path class="st7" d="M134.8,200.2V229c-33.5,0-63.4-15.5-82.7-39.8l0,0l22.5-18C88.8,188.9,110.5,200.2,134.8,200.2z"/>
			<path class="st8" d="M88.9,27.9l12.5,26C80.6,63.9,65,83,59.8,106.1l-28.1-6.4l0,0C38.9,68,60.3,41.7,88.9,27.9L88.9,27.9z"/>
			<path class="st9" d="M74.7,171.2l-22.5,18l0,0c-14.4-18.1-23.1-41-23.1-66c0-8.1,0.9-16,2.6-23.6l0,0l28.1,6.4
				c-1.3,5.5-1.9,11.2-1.9,17.1C57.9,141.4,64.2,158.1,74.7,171.2z"/>
		</g>
		<g>
		</g>
	</g>
	<g id="head_x5F_shadow_1_">
		<defs>
			<path id="XMLID_6_" d="M134.8,17.4C76.4,17.4,29,64.8,29,123.2S76.4,229,134.8,229s105.8-47.4,105.8-105.8S193.3,17.4,134.8,17.4
				z M134.8,200.2c-42.5,0-77-34.5-77-77s34.5-77,77-77s77,34.5,77,77S177.3,200.2,134.8,200.2z"/>
		</defs>
		<clipPath id="XMLID_4_">
			<use xlink:href="#XMLID_6_"  style="overflow:visible;"/>
		</clipPath>
		<g class="st10">
			
				<image style="overflow:visible;" width="222" height="216" xlink:href="14DF4B92.png"  transform="matrix(1 0 0 1 25.2235 -5.9254)">
			</image>
			<g>
				<g>
					<g>
						<defs>
							<path id="XMLID_17_" d="M70.6,20.9c0,0,39.3,9.7,64.3,9.4c21,0.3,31.7-1.6,40.3,0.7c5.8,1.6,7,6.7,7,6.7s5.5-3,8.8,0.3
								c3.2,3.2,18.6,38.4,20.3,61.3c-0.4-0.2-3.6,1.6-3.6,1.6s-6.9-22.9-20.8-42.1c0,0-43.7,7.4-96.9,0
								c-11.5-0.3-26.4,37.4-26.6,42.1l-4.5-2.3c0,0,8-36.6,18.8-54.2C77.7,44.3,67.8,30.6,70.6,20.9z"/>
						</defs>
						<clipPath id="XMLID_5_">
							<use xlink:href="#XMLID_17_"  style="overflow:visible;"/>
						</clipPath>
					</g>
					<g>
						<defs>
							<path id="glasses_16_" d="M134.8,77.4c-9.3,0-9.3,1.3-9.4,1.3c-0.1,0-0.5-0.5-0.5-0.5s-20.8-16.2-59.1-7l-13,4.1
								c-0.3,0.1-0.6,0.4-0.6,0.8c-0.1,1.3-0.3,4.1,0.1,4.6c0.5,0.7,5.1,2.3,5.7,6c0.7,3.7,2.6,23.7,19.4,34.2
								c7.2,4.5,18.6,4.7,25.7,2.9c7.4-1.8,22.2-7.6,22.9-33.2c0.4-4.7-0.8-8.7,8.2-8.7h1.1c8.9,0,7.8,4,8.2,8.7
								c0.7,25.6,15.6,31.3,22.9,33.2c7.1,1.8,18.6,1.5,25.7-2.9c16.9-10.5,18.8-30.5,19.4-34.2s5.2-5.3,5.7-6
								c0.4-0.5,0.2-3.4,0.1-4.6c0-0.4-0.3-0.7-0.6-0.8l-13-4.1c-38.3-9.2-59.1,7-59.1,7s-0.4,0.5-0.5,0.5
								C144.1,78.7,144.1,77.4,134.8,77.4"/>
						</defs>
						<clipPath id="glasses_1_">
							<use xlink:href="#glasses_16_"  style="overflow:visible;"/>
						</clipPath>
					</g>
					<g>
						<defs>
							<path id="mouth_16_" d="M94.3,134c-1.6-0.3-3,1.1-2.7,2.7c3.8,20.4,21.7,35.8,43.2,35.8s39.4-15.4,43.2-35.8
								c0.3-1.6-1.1-3-2.7-2.7C148.3,138.3,121.3,138.3,94.3,134z"/>
						</defs>
						<clipPath id="mouth_1_">
							<use xlink:href="#mouth_16_"  style="overflow:visible;"/>
						</clipPath>
					</g>
				</g>
				<g>
					<g id="head_13_">
						<path class="st11" d="M211.2,106.7c0,42.2-34.2,76.4-76.4,76.4s-76.4-34.2-76.4-76.4c0-1.5,0-3,0.1-4.4
							c2.3-40.1,35.6-72,76.3-72C177,30.3,211.2,64.5,211.2,106.7z"/>
						<path d="M211.5,106.7c0,10-1.9,20.1-5.7,29.4c-3.8,9.3-9.5,17.8-16.6,25c-7.1,7.1-15.6,12.8-24.9,16.7
							c-9.3,3.9-19.4,5.9-29.4,5.9c-10.1,0-20.1-2-29.4-5.9c-9.3-3.9-17.8-9.6-24.9-16.7c-7.1-7.1-12.8-15.7-16.6-24.9
							c-3.8-9.3-5.8-19.3-5.8-29.4c0-10,2-20.1,5.9-29.3c3.9-9.3,9.6-17.7,16.7-24.8c7.1-7.1,15.6-12.7,24.8-16.6
							c9.3-3.8,19.3-5.8,29.3-5.8c10,0,20,1.9,29.3,5.8c9.3,3.8,17.7,9.5,24.8,16.6c7.1,7.1,12.8,15.5,16.7,24.8
							C209.5,86.6,211.5,96.6,211.5,106.7z M211,106.7c0-10-1.9-19.9-5.7-29.2c-3.8-9.2-9.4-17.7-16.5-24.8
							c-7.1-7.1-15.5-12.8-24.7-16.6c-9.2-3.9-19.2-5.8-29.2-5.9c-10,0-20,2-29.2,5.9c-9.2,3.8-17.7,9.5-24.7,16.6
							c-7,7.1-12.7,15.5-16.5,24.8c-3.8,9.2-5.7,19.2-5.7,29.2c0,10,2,19.9,5.9,29.1c3.8,9.2,9.5,17.6,16.6,24.6
							c7.1,7,15.5,12.6,24.7,16.4c9.2,3.8,19.1,5.7,29.1,5.7c9.9,0,19.9-1.9,29.1-5.7c9.2-3.8,17.6-9.4,24.7-16.4
							c7.1-7,12.7-15.4,16.6-24.6C209,126.6,210.9,116.6,211,106.7z"/>
					</g>
					<g>
						<defs>
							<path id="XMLID_16_" d="M70.6,20.9c0,0,39.3,9.7,64.3,9.4c21,0.3,31.7-1.6,40.3,0.7c5.8,1.6,7,6.7,7,6.7s5.5-3,8.8,0.3
								c3.2,3.2,18.6,38.4,20.3,61.3c-0.4-0.2-3.6,1.6-3.6,1.6s-6.9-22.9-20.8-42.1c0,0-43.7,7.4-96.9,0
								c-11.5-0.3-26.4,37.4-26.6,42.1l-4.5-2.3c0,0,8-36.6,18.8-54.2C77.7,44.3,67.8,30.6,70.6,20.9z"/>
						</defs>
						<use xlink:href="#XMLID_16_"  style="overflow:visible;fill:#BA7300;"/>
						<clipPath id="XMLID_9_">
							<use xlink:href="#XMLID_16_"  style="overflow:visible;"/>
						</clipPath>
						<path class="st12" d="M67.9,28.9c0,0,39.9,8.3,64.8,8c21,0.3,30.8-3.5,39.4-1.2c5.8,1.6,8,6.8,8,6.8s5.1-3.2,8.3,0
							c3.2,3.2,18.7,37.2,20.4,60.1c-0.4-0.2-3.6,1.6-3.6,1.6s-6.9-22.9-20.8-42.1c0,0-43.7,7.4-96.9,0
							c-11.5-0.3-26.4,37.4-26.6,42.1l-4.5-2.3c0,0,8-36.6,18.8-54.2C75.4,47.6,65.1,38.6,67.9,28.9z"/>
						
							<use xlink:href="#XMLID_16_"  style="overflow:visible;fill:none;stroke:#000000;stroke-width:1.0812;stroke-linecap:round;stroke-linejoin:round;stroke-miterlimit:10;"/>
					</g>
					<g>
						<defs>
							<path id="glasses_15_" d="M134.8,77.4c-9.3,0-9.3,1.3-9.4,1.3c-0.1,0-0.5-0.5-0.5-0.5s-20.8-16.2-59.1-7l-13,4.1
								c-0.3,0.1-0.6,0.4-0.6,0.8c-0.1,1.3-0.3,4.1,0.1,4.6c0.5,0.7,5.1,2.3,5.7,6c0.7,3.7,2.6,23.7,19.4,34.2
								c7.2,4.5,18.6,4.7,25.7,2.9c7.4-1.8,22.2-7.6,22.9-33.2c0.4-4.7-0.8-8.7,8.2-8.7h1.1c8.9,0,7.8,4,8.2,8.7
								c0.7,25.6,15.6,31.3,22.9,33.2c7.1,1.8,18.6,1.5,25.7-2.9c16.9-10.5,18.8-30.5,19.4-34.2s5.2-5.3,5.7-6
								c0.4-0.5,0.2-3.4,0.1-4.6c0-0.4-0.3-0.7-0.6-0.8l-13-4.1c-38.3-9.2-59.1,7-59.1,7s-0.4,0.5-0.5,0.5
								C144.1,78.7,144.1,77.4,134.8,77.4"/>
						</defs>
						<use xlink:href="#glasses_15_"  style="overflow:visible;fill:#4F4A44;"/>
						<clipPath id="glasses_2_">
							<use xlink:href="#glasses_15_"  style="overflow:visible;"/>
						</clipPath>
						<g class="st13">
							<polygon class="st14" points="90.7,111.8 78.2,133.5 89.1,139.7 102.1,117.1 							"/>
							<polygon class="st14" points="103.8,114.8 132.4,65.2 121.6,58.9 92.7,108.9 							"/>
						</g>
						<g class="st13">
							<polygon class="st14" points="178.8,112 166.3,133.6 177.2,139.9 190.2,117.3 							"/>
							<polygon class="st14" points="191.9,115 220.5,65.3 209.7,59.1 180.8,109 							"/>
						</g>
						
							<use xlink:href="#glasses_15_"  style="overflow:visible;fill:none;stroke:#000000;stroke-width:1.0812;stroke-miterlimit:10;"/>
					</g>
					<g>
						<defs>
							<path id="mouth_15_" d="M94.3,134c-1.6-0.3-3,1.1-2.7,2.7c3.8,20.4,21.7,35.8,43.2,35.8s39.4-15.4,43.2-35.8
								c0.3-1.6-1.1-3-2.7-2.7C148.3,138.3,121.3,138.3,94.3,134z"/>
						</defs>
						<use xlink:href="#mouth_15_"  style="overflow:visible;fill:#460D1E;"/>
						<clipPath id="mouth_2_">
							<use xlink:href="#mouth_15_"  style="overflow:visible;"/>
						</clipPath>
						<ellipse class="st15" cx="144.1" cy="169.6" rx="17.5" ry="11.9"/>
						
							<use xlink:href="#mouth_15_"  style="overflow:visible;fill:none;stroke:#000000;stroke-width:1.0812;stroke-miterlimit:10;"/>
					</g>
				</g>
				<g>
					<g>
						<defs>
							<path id="XMLID_15_" d="M70.6,20.9c0,0,39.3,9.7,64.3,9.4c21,0.3,31.7-1.6,40.3,0.7c5.8,1.6,7,6.7,7,6.7s5.5-3,8.8,0.3
								c3.2,3.2,18.6,38.4,20.3,61.3c-0.4-0.2-3.6,1.6-3.6,1.6s-6.9-22.9-20.8-42.1c0,0-43.7,7.4-96.9,0
								c-11.5-0.3-26.4,37.4-26.6,42.1l-4.5-2.3c0,0,8-36.6,18.8-54.2C77.7,44.3,67.8,30.6,70.6,20.9z"/>
						</defs>
						<clipPath id="XMLID_10_">
							<use xlink:href="#XMLID_15_"  style="overflow:visible;"/>
						</clipPath>
					</g>
					<g>
						<defs>
							<path id="glasses_14_" d="M134.8,77.4c-9.3,0-9.3,1.3-9.4,1.3c-0.1,0-0.5-0.5-0.5-0.5s-20.8-16.2-59.1-7l-13,4.1
								c-0.3,0.1-0.6,0.4-0.6,0.8c-0.1,1.3-0.3,4.1,0.1,4.6c0.5,0.7,5.1,2.3,5.7,6c0.7,3.7,2.6,23.7,19.4,34.2
								c7.2,4.5,18.6,4.7,25.7,2.9c7.4-1.8,22.2-7.6,22.9-33.2c0.4-4.7-0.8-8.7,8.2-8.7h1.1c8.9,0,7.8,4,8.2,8.7
								c0.7,25.6,15.6,31.3,22.9,33.2c7.1,1.8,18.6,1.5,25.7-2.9c16.9-10.5,18.8-30.5,19.4-34.2s5.2-5.3,5.7-6
								c0.4-0.5,0.2-3.4,0.1-4.6c0-0.4-0.3-0.7-0.6-0.8l-13-4.1c-38.3-9.2-59.1,7-59.1,7s-0.4,0.5-0.5,0.5
								C144.1,78.7,144.1,77.4,134.8,77.4"/>
						</defs>
						<clipPath id="glasses_6_">
							<use xlink:href="#glasses_14_"  style="overflow:visible;"/>
						</clipPath>
					</g>
					<g>
						<defs>
							<path id="mouth_14_" d="M94.3,134c-1.6-0.3-3,1.1-2.7,2.7c3.8,20.4,21.7,35.8,43.2,35.8s39.4-15.4,43.2-35.8
								c0.3-1.6-1.1-3-2.7-2.7C148.3,138.3,121.3,138.3,94.3,134z"/>
						</defs>
						<clipPath id="mouth_6_">
							<use xlink:href="#mouth_14_"  style="overflow:visible;"/>
						</clipPath>
					</g>
				</g>
			</g>
		</g>
	</g>
	<g>
		<g id="head_2_">
			<path class="st11" d="M216.3,109.1c0,45-36.5,81.4-81.4,81.4s-81.4-36.5-81.4-81.4c0-1.6,0-3.2,0.1-4.7
				c2.4-42.8,37.9-76.7,81.3-76.7C179.8,27.7,216.3,64.2,216.3,109.1z"/>
			<path d="M216.6,109.1c0,10.7-2,21.4-6.1,31.3c-4.1,9.9-10.1,19-17.7,26.6c-7.6,7.6-16.6,13.7-26.6,17.8
				c-9.9,4.1-20.6,6.3-31.4,6.3c-10.7,0-21.5-2.2-31.4-6.3c-9.9-4.1-19-10.2-26.5-17.8c-7.6-7.6-13.6-16.7-17.7-26.6
				c-4.1-9.9-6.2-20.6-6.1-31.3c0-10.7,2.1-21.4,6.3-31.2C63.5,68,69.6,59,77.2,51.5c7.6-7.5,16.6-13.6,26.5-17.7
				c9.9-4.1,20.5-6.2,31.2-6.1c10.7,0,21.3,2.1,31.2,6.1c9.9,4.1,18.9,10.1,26.5,17.6c7.6,7.5,13.7,16.6,17.8,26.4
				C214.4,87.8,216.5,98.4,216.6,109.1z M216,109.1c0-10.6-2-21.3-6.1-31.1c-4-9.8-10.1-18.9-17.6-26.4
				c-7.5-7.5-16.5-13.6-26.4-17.7c-9.8-4.1-20.5-6.2-31.2-6.2c-10.7,0-21.3,2.1-31.1,6.2C93.9,38,84.9,44.1,77.3,51.6
				C69.8,59.2,63.8,68.2,59.7,78c-4.1,9.8-6.1,20.5-6.1,31.1c0,10.6,2.1,21.2,6.2,31C64,150,70,159,77.5,166.5
				c7.5,7.5,16.5,13.5,26.3,17.5c9.8,4,20.4,6.1,31,6.1c10.6,0,21.2-2.1,31-6.1c9.8-4,18.8-10,26.3-17.5
				c7.5-7.5,13.6-16.4,17.7-26.2C213.9,130.4,216,119.8,216,109.1z"/>
		</g>
		<g id="hair_1_">
			<defs>
				<path id="XMLID_1_" d="M66.3,17.7c0,0,41.9,10.3,68.5,10c22.4,0.4,33.8-1.7,43,0.8c6.2,1.7,7.5,7.1,7.5,7.1s5.9-3.1,9.4,0.3
					s19.8,41,21.7,65.4c-0.4-0.2-3.8,1.7-3.8,1.7s-7.4-24.4-22.2-44.9c0,0-46.6,7.9-103.3,0c-12.2-0.4-28.2,39.9-28.3,44.9l-4.8-2.5
					c0,0,8.5-39,20.1-57.8C73.9,42.7,63.4,28.1,66.3,17.7z"/>
			</defs>
			<use xlink:href="#XMLID_1_"  style="overflow:visible;fill:#BA7300;"/>
			<clipPath id="XMLID_11_">
				<use xlink:href="#XMLID_1_"  style="overflow:visible;"/>
			</clipPath>
			<path class="st16" d="M63.5,26.2c0,0,42.5,8.9,69.1,8.5c22.4,0.4,32.9-3.8,42-1.3c6.2,1.7,8.6,7.2,8.6,7.2s5.4-3.5,8.9,0
				c3.5,3.5,19.9,39.7,21.8,64.1c-0.4-0.2-3.8,1.7-3.8,1.7s-7.4-24.4-22.2-44.9c0,0-46.6,7.9-103.3,0c-12.2-0.4-28.2,39.9-28.3,44.9
				l-4.8-2.5c0,0,8.5-39,20.1-57.8C71.5,46.2,60.6,36.6,63.5,26.2z"/>
			
				<use xlink:href="#XMLID_1_"  style="overflow:visible;fill:none;stroke:#000000;stroke-width:1.0812;stroke-linecap:round;stroke-linejoin:round;stroke-miterlimit:10;"/>
		</g>
		<g id="glasses_3_">
			<defs>
				<path id="glasses_4_" d="M134.8,77.9c-9.9,0-9.9,1.4-10,1.4c-0.1,0-0.5-0.5-0.5-0.5s-22.2-17.3-63-7.5l-13.8,4.3
					c-0.4,0.1-0.6,0.4-0.7,0.8c-0.1,1.3-0.3,4.4,0.1,4.9c0.5,0.7,5.4,2.5,6.1,6.4c0.7,3.9,2.7,25.2,20.7,36.5
					c7.6,4.8,19.9,5,27.4,3.1c7.8-2,23.7-8.1,24.4-35.3c0.4-5-0.8-9.2,8.7-9.2h1.2c9.5,0,8.3,4.2,8.7,9.2
					c0.8,27.3,16.6,33.4,24.4,35.3c7.6,1.9,19.8,1.6,27.4-3.1c18-11.2,20-32.6,20.7-36.5c0.7-3.9,5.6-5.7,6.1-6.4
					c0.4-0.5,0.2-3.6,0.1-4.9c0-0.4-0.3-0.7-0.7-0.8l-13.8-4.3c-40.9-9.8-63,7.5-63,7.5s-0.4,0.5-0.5,0.5
					C144.7,79.3,144.7,77.9,134.8,77.9"/>
			</defs>
			<radialGradient id="glasses_7_" cx="134.8332" cy="98.3807" r="65.8987" gradientUnits="userSpaceOnUse">
				<stop  offset="0" style="stop-color:#6B6B6B"/>
				<stop  offset="1" style="stop-color:#666666"/>
			</radialGradient>
			<use xlink:href="#glasses_4_"  style="overflow:visible;fill:url(#glasses_7_);"/>
			<clipPath id="glasses_8_">
				<use xlink:href="#glasses_4_"  style="overflow:visible;"/>
			</clipPath>
			<g id="left_x5F_shine_1_" class="st17">
				<polygon class="st14" points="87.8,114.7 74.5,137.7 86.1,144.4 100,120.3 				"/>
				<polygon class="st14" points="101.7,117.8 132.3,64.9 120.7,58.3 89.9,111.5 				"/>
			</g>
			<g id="right_x5F_shine_1_" class="st17">
				<polygon class="st14" points="181.7,114.8 168.4,137.8 180,144.5 193.9,120.5 				"/>
				<polygon class="st14" points="195.6,118 226.2,65.1 214.6,58.4 183.8,111.7 				"/>
			</g>
			<use xlink:href="#glasses_4_"  style="overflow:visible;fill:none;stroke:#000000;stroke-width:1.0812;stroke-miterlimit:10;"/>
		</g>
		<g id="mouth_3_">
			<defs>
				<path id="mouth_4_" d="M91.7,138.3c-1.7-0.3-3.2,1.2-2.9,2.9c4.1,21.7,23.2,38.1,46.1,38.1s42-16.4,46.1-38.1
					c0.3-1.7-1.2-3.2-2.9-2.9C149.2,142.8,120.4,142.8,91.7,138.3z"/>
			</defs>
			<use xlink:href="#mouth_4_"  style="overflow:visible;fill:#460D1E;"/>
			<clipPath id="mouth_7_">
				<use xlink:href="#mouth_4_"  style="overflow:visible;"/>
			</clipPath>
			<ellipse id="tongue_1_" class="st18" cx="144.7" cy="176.2" rx="18.6" ry="12.7"/>
			<use xlink:href="#mouth_4_"  style="overflow:visible;fill:none;stroke:#000000;stroke-width:1.0812;stroke-miterlimit:10;"/>
		</g>
		<path id="nose_1_" class="st19" d="M142.6,124.6c0,2.9-3.4,4.1-7.6,4.1c-4.2,0-7.6-1.3-7.6-4.1"/>
	</g>
</g>
</svg>
